<svg className="idinheiro_svg__block__icon--logoidhdefault idinheiro_svg__icon__logo" viewBox="0 0 1900 320" xmlns="http://www.w3.org/2000/svg" width="190px" height="32px">
  <path d="M713.685 290.837c66.85 0 132.957-38.51 132.957-129.599 0-94.792-54.965-129.598-129.244-129.598h-81.334v259.197h77.62Zm-.287-41.828h-25.34V72.13h27.177c54.352 0 76.754 27.33 76.754 86.777 0 59.449-24.606 90.103-78.59 90.103ZM895.914 99.257c15.97 0 29.34-13.33 29.34-29.252 0-15.922-13.37-29.252-29.34-29.252s-29.34 13.33-29.34 29.252c0 15.922 13.37 29.252 29.34 29.252Zm25.625 191.58V115.179l-51.251 14.04v161.618h51.251Zm613.131-191.58c15.97 0 29.34-13.33 29.34-29.252 0-15.922-13.37-29.252-29.34-29.252s-29.34 13.33-29.34 29.252c0 15.922 13.37 29.252 29.34 29.252Zm-122.156 14.795c40.517 0 66.713 20.4 73.795 67.522 1.283 8.537 1.939 17.95 1.939 28.277l-110.661.358c5.512 40.029 36.298 58.58 92.359 55.655-8.865 19.17-28.627 28.756-59.287 28.756-45.99 0-83.002-36.981-83.002-90.125 0-53.143 32.49-90.443 84.857-90.443Zm147.782 1.127v175.658h-51.251V129.22l51.251-14.04Zm-147.616 27.579c-17.803 0-30.12 14.947-33.968 39.816l66.835.001c0-16.862-9.31-39.817-32.867-39.817ZM997.922 290.837V144.749c45.508 5.109 68.261 32.327 68.261 81.655v64.433h50.479V195.57c0-66.35-41.567-83.37-82.867-83.26-27.533.072-56.575 10.733-87.125 31.981v146.546h51.252Zm632.843 0V144.749c25.402 8.82 41.885 16.94 49.45 24.361l27.236-49.606c-12.519-5.264-26.681-7.232-40.813-7.195-27.533.073-56.575 10.734-87.125 31.982v146.546h51.252Zm-440.73 0V144.749c45.508 5.109 68.262 32.327 68.262 81.655v64.433h50.478V195.57c0-66.35-60.423-83.37-82.867-83.26-14.962.072-27.195 4.138-36.699 12.196L1190.036 24l-51.252 14.304v252.533h51.252Zm599.288 4.073c53.558 0 93.043-37.653 93.043-91.778 0-54.126-39.485-92.114-93.043-92.114-53.559 0-92.653 37.988-92.653 92.114 0 54.125 39.094 91.778 92.653 91.778Zm-.028-33.338c-29.394 0-43.2-25.084-43.2-59.523 0-34.438 13.806-59.948 43.2-59.948 29.395 0 43.647 25.935 43.647 59.948 0 31.037-14.252 59.523-43.647 59.523ZM578.34 99.257c15.97 0 29.34-13.33 29.34-29.252 0-15.922-13.37-29.252-29.34-29.252S549 54.083 549 70.005c0 15.922 13.37 29.252 29.34 29.252ZM603.966 290.837V115.179l-51.252 14.04v161.618z"></path>
  <path d="M61.343 123.301v38.614c26.563 0 61.343-38.614 61.343-99.96 0-33.392-27.954-61.347-61.343-61.347C27.953.608 0 28.563 0 61.955 0 95.345 27.954 123.3 61.343 123.3Z" fill="#373737"></path>
  <path d="M414.47 161.872c0 88.853-72.03 160.882-160.882 160.882h-101.68V.99h101.68C342.44.99 414.47 73.02 414.47 161.872Z" fill="#0071FF"></path>
</svg>
